<svg xmlns="http://www.w3.org/2000/svg" viewBox="0 0 1000 355"><path d="M622.8 34.6c0.3-19.4 16.3-34.8 35.7-34.5 19.4 0.3 34.8 16.3 34.5 35.7 -0.3 19.4-16.3 34.8-35.7 34.5C637.9 70 622.5 54 622.8 34.6L622.8 34.6zM803.2 117.7c-0.2-0.2-0.1-0.8-0.1-0.8s3.9-9.5 3.5-13.4c-0.7-6.7-3.5-12.3-17-17.4 -13.5-5-23.3 5.5-26.5 10.1 -2.8 4-9.8 23.9-9.8 23.9s-0.6 1.5-0.2 2.2c0.5 0.8 1.7 1.3 1.7 1.3s4.9 2 8.5 4.4c4.8 3.2 6 8.3 2.6 11.4 -1.1 1-13 7.7-15.5 8.4 -1.7 0.5-3.8 1.7-10.5 3.9 -3 1-28.1 15.1-28.9 16.6 -0.9 1.5-7.4 7.2-7.4 7.2s-78.6 45.4-81.4 46.8c-2.9 1.4-14.4 4-16.2 4.4 -1.8 0.5-4.4 3.9-4.4 3.9s-8.8 8.7-11.8 12.5c-3.1 3.8 0.4 5.2 2.4 4.1 0.6-0.4 4.5-2.6 4.5-2.6l7.8-0.9c0 0 1.6 0 2.4-0.4 0.8-0.4 1.7-1.5 1.7-1.5l4.5-5 129.2-49.8c0 0 0.9-0.3 1.4-0.1 0.7 0.2 1.3 1.2 1.3 1.2s3.7 4.5 6 7.3c3.6 4.5 22.9 26.9 24.3 29.6 1.5 2.7 3.2 9.9 5.1 16.2 1.9 6.3 4.9 16.3 10.4 24.3 4.6 6.7 29.9 28.6 29.9 28.6s10.3 7.8 16.4 12.2c6.1 4.4 17.5 13.1 22 13.5 4.5 0.4 8.7-1.2 12.2-2.1 3.5-0.9 61-28.6 74-29.9 10.6-1.1 50.7 1.2 53.1 0 3.9-1.9 0.6-6.6-3.9-12.1 -3.6-4.5-7.7-6.7-11.6-9.2 -4-2.6-14-9.2-19.5-11.9 -3.9-1.9-6.8 4.7-11.8 5.5 -1.9 0.3-1.8 0.4-4.9 0.3 -3.2-0.1-12.6-0.1-23 0.8 -6.8 0.6-25.2 7.4-29.2 6.5 -2.3-0.5-5.7-4.1-8.6-7.8 -3-3.7-25.8-34.1-30-39.9 -4.9-6.9-27.3-22.2-30.2-27.2 -2.9-5-0.3-18.9-0.3-18.9l2.7-29.7c0 0 0.1-1.6 0.5-2.6 0.5-1.1 2-2.5 2-2.5s22.2-23.5 26.7-28.1c3.7-3.8 17.3-16.5 21.2-20.9 6.1-6.4 1.2-10.1 1.2-10.1s-40.4-39-45.4-42.5c-9.2-6.4-19.1-3.3-19.1-3.3l-10.5 3.8c0 0-2.1 1.1-2.3 2.3 -0.2 0.9 0.6 2.3 0.6 2.3l10 10.7c0 0-2.4 1.4-5.7 4.6 -3.4 3.3-0.3 6.4-0.3 6.4s3.5-2.2 8.1-4.7c3.7-2.1 17.4-4.7 17.4-4.7s15.4 24.4 16.5 27c2.7 6.3 2.8 8-0.5 9.9 -2.8 1.6-44.5 25.7-44.5 25.7S803.5 117.9 803.2 117.7L803.2 117.7zM152.6 294.7c-2.3-11.8-2.9-23.6-2.9-35.3v-55.7c0-45.7-33-62.1-71.3-62.1 -22.1 0-41.3 3.2-59.7 10.6l0.9 35.1c14.3-8 31-11.2 47.7-11.2 18.7 0 33.9 5.5 34.2 25.9 -6.6-1.1-15.8-2-24.2-2C49.7 199.8 0 205.3 0 251c0 32.5 26.4 47.1 56 47.1 21.3 0 35.6-8.3 47.4-27h0.6c0 7.8 0.9 15.5 1.2 23.6H152.6zM48.3 247.2c0-14.4 13.8-19.8 31.3-19.8 7.7 0 15.2 0.6 21.9 0.9 0 17.5-12.4 35.3-31.9 35.3C57.5 263.6 48.3 257.6 48.3 247.2zM202 294.7h58.9L316.4 145h-51.4l-31.3 106.6H233L202 145h-55.5L202 294.7zM325.7 355h51.7v-81.3h0.6c9.8 17.8 29.3 24.4 47.4 24.4 44.5 0 68.4-36.8 68.4-81 0-36.2-22.7-75.6-64.1-75.6 -23.5 0-45.4 9.5-55.7 30.4h-0.5v-27h-47.7V355zM440.3 218.2c0 23.9-11.8 40.2-31.3 40.2 -17.3 0-31.6-16.4-31.6-38.2 0-22.4 12.7-39.1 31.6-39.1C429.1 181.2 440.3 198.4 440.3 218.2z"></path></svg>